<?xml version="1.0" encoding="utf-8" standalone="no"?>
<!DOCTYPE svg PUBLIC "-//W3C//DTD SVG 1.1//EN"
  "http://www.w3.org/Graphics/SVG/1.1/DTD/svg11.dtd">
<svg xmlns:xlink="http://www.w3.org/1999/xlink" width="864pt" height="583.2pt" viewBox="0 0 864 583.2" xmlns="http://www.w3.org/2000/svg" version="1.1">
 <metadata>
  <rdf:RDF xmlns:dc="http://purl.org/dc/elements/1.1/" xmlns:cc="http://creativecommons.org/ns#" xmlns:rdf="http://www.w3.org/1999/02/22-rdf-syntax-ns#">
   <cc:Work>
    <dc:type rdf:resource="http://purl.org/dc/dcmitype/StillImage"/>
    <dc:date>2026-09-29T06:47:57.248075</dc:date>
    <dc:format>image/svg+xml</dc:format>
    <dc:creator>
     <cc:Agent>
      <dc:title>Matplotlib v3.9.2, https://matplotlib.org/</dc:title>
     </cc:Agent>
    </dc:creator>
   </cc:Work>
  </rdf:RDF>
 </metadata>
 <defs>
  <style type="text/css">*{stroke-linejoin: round; stroke-linecap: butt}</style>
 </defs>
 <g id="figure_1">
  <g id="patch_1">
   <path d="M 0 583.2 
L 864 583.2 
L 864 0 
L 0 0 
z
" style="fill: #ffffff"/>
  </g>
  <g id="axes_1">
   <g id="patch_2">
    <path d="M 36.72 181.44 
L 416.52 181.44 
Q 421.56 181.44 421.56 176.4 
L 421.56 123.12 
Q 421.56 118.08 416.52 118.08 
L 36.72 118.08 
Q 31.68 118.08 31.68 123.12 
L 31.68 176.4 
Q 31.68 181.44 36.72 181.44 
z
" clip-path="url(#p1ef4ec80b6)" style="fill: #eaf3fa; stroke: #7691a3; stroke-linejoin: miter"/>
   </g>
   <g id="patch_3">
    <path d="M 424.999512 149.76 
Q 432.001679 149.76 437.718106 149.76 
" clip-path="url(#p1ef4ec80b6)" style="fill: none; stroke: #45667c; stroke-width: 1.15; stroke-linecap: round"/>
    <path d="M 433.318106 147.56 
L 437.718106 149.76 
L 433.318106 151.96 
z
" clip-path="url(#p1ef4ec80b6)" style="fill: #45667c; stroke: #45667c; stroke-width: 1.15; stroke-linecap: round"/>
   </g>
   <g id="patch_4">
    <path d="M 447.48 181.44 
L 827.28 181.44 
Q 832.32 181.44 832.32 176.4 
L 832.32 123.12 
Q 832.32 118.08 827.28 118.08 
L 447.48 118.08 
Q 442.44 118.08 442.44 123.12 
L 442.44 176.4 
Q 442.44 181.44 447.48 181.44 
z
" clip-path="url(#p1ef4ec80b6)" style="fill: #eaf3fa; stroke: #7691a3; stroke-linejoin: miter"/>
   </g>
   <g id="patch_5">
    <path d="M 36.72 293.04 
L 279.6 293.04 
Q 284.64 293.04 284.64 288 
L 284.64 234.72 
Q 284.64 229.68 279.6 229.68 
L 36.72 229.68 
Q 31.68 229.68 31.68 234.72 
L 31.68 288 
Q 31.68 293.04 36.72 293.04 
z
" clip-path="url(#p1ef4ec80b6)" style="fill: #f0f4f8; stroke: #7691a3; stroke-linejoin: miter"/>
   </g>
   <g id="patch_6">
    <path d="M 288.079512 261.36 
Q 295.081679 261.36 300.798106 261.36 
" clip-path="url(#p1ef4ec80b6)" style="fill: none; stroke: #45667c; stroke-width: 1.15; stroke-linecap: round"/>
    <path d="M 296.398106 259.16 
L 300.798106 261.36 
L 296.398106 263.56 
z
" clip-path="url(#p1ef4ec80b6)" style="fill: #45667c; stroke: #45667c; stroke-width: 1.15; stroke-linecap: round"/>
   </g>
   <g id="patch_7">
    <path d="M 310.56 293.04 
L 553.44 293.04 
Q 558.48 293.04 558.48 288 
L 558.48 234.72 
Q 558.48 229.68 553.44 229.68 
L 310.56 229.68 
Q 305.52 229.68 305.52 234.72 
L 305.52 288 
Q 305.52 293.04 310.56 293.04 
z
" clip-path="url(#p1ef4ec80b6)" style="fill: #f0f4f8; stroke: #7691a3; stroke-linejoin: miter"/>
   </g>
   <g id="patch_8">
    <path d="M 561.919512 261.36 
Q 568.921679 261.36 574.638106 261.36 
" clip-path="url(#p1ef4ec80b6)" style="fill: none; stroke: #45667c; stroke-width: 1.15; stroke-linecap: round"/>
    <path d="M 570.238106 259.16 
L 574.638106 261.36 
L 570.238106 263.56 
z
" clip-path="url(#p1ef4ec80b6)" style="fill: #45667c; stroke: #45667c; stroke-width: 1.15; stroke-linecap: round"/>
   </g>
   <g id="patch_9">
    <path d="M 584.4 293.04 
L 827.28 293.04 
Q 832.32 293.04 832.32 288 
L 832.32 234.72 
Q 832.32 229.68 827.28 229.68 
L 584.4 229.68 
Q 579.36 229.68 579.36 234.72 
L 579.36 288 
Q 579.36 293.04 584.4 293.04 
z
" clip-path="url(#p1ef4ec80b6)" style="fill: #f0f4f8; stroke: #7691a3; stroke-linejoin: miter"/>
   </g>
   <g id="patch_10">
    <path d="M 36.72 404.64 
L 279.6 404.64 
Q 284.64 404.64 284.64 399.6 
L 284.64 346.32 
Q 284.64 341.28 279.6 341.28 
L 36.72 341.28 
Q 31.68 341.28 31.68 346.32 
L 31.68 399.6 
Q 31.68 404.64 36.72 404.64 
z
" clip-path="url(#p1ef4ec80b6)" style="fill: #eef5ef; stroke: #7691a3; stroke-linejoin: miter"/>
   </g>
   <g id="patch_11">
    <path d="M 288.079512 372.96 
Q 295.081679 372.96 300.798106 372.96 
" clip-path="url(#p1ef4ec80b6)" style="fill: none; stroke: #45667c; stroke-width: 1.15; stroke-linecap: round"/>
    <path d="M 296.398106 370.76 
L 300.798106 372.96 
L 296.398106 375.16 
z
" clip-path="url(#p1ef4ec80b6)" style="fill: #45667c; stroke: #45667c; stroke-width: 1.15; stroke-linecap: round"/>
   </g>
   <g id="patch_12">
    <path d="M 310.56 404.64 
L 553.44 404.64 
Q 558.48 404.64 558.48 399.6 
L 558.48 346.32 
Q 558.48 341.28 553.44 341.28 
L 310.56 341.28 
Q 305.52 341.28 305.52 346.32 
L 305.52 399.6 
Q 305.52 404.64 310.56 404.64 
z
" clip-path="url(#p1ef4ec80b6)" style="fill: #eef5ef; stroke: #7691a3; stroke-linejoin: miter"/>
   </g>
   <g id="patch_13">
    <path d="M 561.919512 372.96 
Q 568.921679 372.96 574.638106 372.96 
" clip-path="url(#p1ef4ec80b6)" style="fill: none; stroke: #45667c; stroke-width: 1.15; stroke-linecap: round"/>
    <path d="M 570.238106 370.76 
L 574.638106 372.96 
L 570.238106 375.16 
z
" clip-path="url(#p1ef4ec80b6)" style="fill: #45667c; stroke: #45667c; stroke-width: 1.15; stroke-linecap: round"/>
   </g>
   <g id="patch_14">
    <path d="M 584.4 404.64 
L 827.28 404.64 
Q 832.32 404.64 832.32 399.6 
L 832.32 346.32 
Q 832.32 341.28 827.28 341.28 
L 584.4 341.28 
Q 579.36 341.28 579.36 346.32 
L 579.36 399.6 
Q 579.36 404.64 584.4 404.64 
z
" clip-path="url(#p1ef4ec80b6)" style="fill: #eef5ef; stroke: #7691a3; stroke-linejoin: miter"/>
   </g>
   <g id="patch_15">
    <path d="M 36.72 516.24 
L 279.6 516.24 
Q 284.64 516.24 284.64 511.2 
L 284.64 457.92 
Q 284.64 452.88 279.6 452.88 
L 36.72 452.88 
Q 31.68 452.88 31.68 457.92 
L 31.68 511.2 
Q 31.68 516.24 36.72 516.24 
z
" clip-path="url(#p1ef4ec80b6)" style="fill: #f7f1e8; stroke: #7691a3; stroke-linejoin: miter"/>
   </g>
   <g id="patch_16">
    <path d="M 288.079512 484.56 
Q 295.081679 484.56 300.798106 484.56 
" clip-path="url(#p1ef4ec80b6)" style="fill: none; stroke: #45667c; stroke-width: 1.15; stroke-linecap: round"/>
    <path d="M 296.398106 482.36 
L 300.798106 484.56 
L 296.398106 486.76 
z
" clip-path="url(#p1ef4ec80b6)" style="fill: #45667c; stroke: #45667c; stroke-width: 1.15; stroke-linecap: round"/>
   </g>
   <g id="patch_17">
    <path d="M 310.56 516.24 
L 553.44 516.24 
Q 558.48 516.24 558.48 511.2 
L 558.48 457.92 
Q 558.48 452.88 553.44 452.88 
L 310.56 452.88 
Q 305.52 452.88 305.52 457.92 
L 305.52 511.2 
Q 305.52 516.24 310.56 516.24 
z
" clip-path="url(#p1ef4ec80b6)" style="fill: #f7f1e8; stroke: #7691a3; stroke-linejoin: miter"/>
   </g>
   <g id="patch_18">
    <path d="M 561.919512 484.56 
Q 568.921679 484.56 574.638106 484.56 
" clip-path="url(#p1ef4ec80b6)" style="fill: none; stroke: #45667c; stroke-width: 1.15; stroke-linecap: round"/>
    <path d="M 570.238106 482.36 
L 574.638106 484.56 
L 570.238106 486.76 
z
" clip-path="url(#p1ef4ec80b6)" style="fill: #45667c; stroke: #45667c; stroke-width: 1.15; stroke-linecap: round"/>
   </g>
   <g id="patch_19">
    <path d="M 584.4 516.24 
L 827.28 516.24 
Q 832.32 516.24 832.32 511.2 
L 832.32 457.92 
Q 832.32 452.88 827.28 452.88 
L 584.4 452.88 
Q 579.36 452.88 579.36 457.92 
L 579.36 511.2 
Q 579.36 516.24 584.4 516.24 
z
" clip-path="url(#p1ef4ec80b6)" style="fill: #f7f1e8; stroke: #7691a3; stroke-linejoin: miter"/>
   </g>
   <g id="text_1">
    <text style="fill: #172d40; font: 700 21px 'DejaVu Sans'; text-anchor: start" x="32.4" y="40.354687" transform="rotate(-0 32.4 40.354687)">Manual and autonomous RC car</text>
   </g>
   <g id="text_2">
    <text style="fill: #526575; font: 10.5px 'DejaVu Sans'; text-anchor: start" x="32.4" y="69.857344" transform="rotate(-0 32.4 69.857344)">Movement is subject to the obstacle-stop condition</text>
   </g>
   <g id="text_3">
    <text style="fill: #365b71; font: 700 10px 'DejaVu Sans'; text-anchor: start" x="32.4" y="110.88" transform="rotate(-0 32.4 110.88)">Mode selection</text>
   </g>
   <g id="text_4">
    <text style="fill: #172d40; font: 11.2px 'DejaVu Sans'; text-anchor: middle" x="226.62" y="152.8505" transform="rotate(-0 226.62 152.8505)">Bluetooth command</text>
   </g>
   <g id="text_5">
    <text style="fill: #172d40; font: 11.2px 'DejaVu Sans'" transform="translate(579.4235 145.941456)">Manual or automatic</text>
    <text style="fill: #172d40; font: 11.2px 'DejaVu Sans'" transform="translate(596.07825 159.759544)">mode selected</text>
   </g>
   <g id="text_6">
    <text style="fill: #365b71; font: 700 10px 'DejaVu Sans'; text-anchor: start" x="32.4" y="222.48" transform="rotate(-0 32.4 222.48)">Manual mode</text>
   </g>
   <g id="text_7">
    <text style="fill: #172d40; font: 11.2px 'DejaVu Sans'" transform="translate(106.833375 257.541456)">Direction / speed /</text>
    <text style="fill: #172d40; font: 11.2px 'DejaVu Sans'" transform="translate(105.463125 271.359544)">steering command</text>
   </g>
   <g id="text_8">
    <text style="fill: #172d40; font: 11.2px 'DejaVu Sans'; text-anchor: middle" x="432" y="264.4505" transform="rotate(-0 432 264.4505)">Update motion state</text>
   </g>
   <g id="text_9">
    <text style="fill: #172d40; font: 11.2px 'DejaVu Sans'" transform="translate(671.44375 257.541456)">Apply motor</text>
    <text style="fill: #172d40; font: 11.2px 'DejaVu Sans'" transform="translate(653.46075 271.359544)">direction and PWM</text>
   </g>
   <g id="text_10">
    <text style="fill: #365b71; font: 700 10px 'DejaVu Sans'; text-anchor: start" x="32.4" y="334.08" transform="rotate(-0 32.4 334.08)">Automatic mode</text>
   </g>
   <g id="text_11">
    <text style="fill: #172d40; font: 11.2px 'DejaVu Sans'" transform="translate(126.21375 369.141456)">Left + right</text>
    <text style="fill: #172d40; font: 11.2px 'DejaVu Sans'" transform="translate(108.854625 382.959544)">IR measurements</text>
   </g>
   <g id="text_12">
    <text style="fill: #172d40; font: 11.2px 'DejaVu Sans'" transform="translate(380.634 369.141456)">Compare readings</text>
    <text style="fill: #172d40; font: 11.2px 'DejaVu Sans'" transform="translate(374.012 382.959544)">Select steering state</text>
   </g>
   <g id="text_13">
    <text style="fill: #172d40; font: 11.2px 'DejaVu Sans'; text-anchor: middle" x="705.84" y="376.0505" transform="rotate(-0 705.84 376.0505)">Apply motor PWM</text>
   </g>
   <g id="text_14">
    <text style="fill: #365b71; font: 700 10px 'DejaVu Sans'; text-anchor: start" x="32.4" y="445.68" transform="rotate(-0 32.4 445.68)">Obstacle handling</text>
   </g>
   <g id="text_15">
    <text style="fill: #172d40; font: 11.2px 'DejaVu Sans'" transform="translate(130.048875 480.741456)">Ultrasonic</text>
    <text style="fill: #172d40; font: 11.2px 'DejaVu Sans'" transform="translate(93.585875 494.559544)">distance measurement</text>
   </g>
   <g id="text_16">
    <text style="fill: #172d40; font: 11.2px 'DejaVu Sans'" transform="translate(382.461 480.741456)">Obstacle present:</text>
    <text style="fill: #172d40; font: 11.2px 'DejaVu Sans'" transform="translate(398.4035 494.559544)">stop motors</text>
   </g>
   <g id="text_17">
    <text style="fill: #172d40; font: 11.2px 'DejaVu Sans'" transform="translate(676.1565 480.741456)">Path clear:</text>
    <text style="fill: #172d40; font: 11.2px 'DejaVu Sans'" transform="translate(626.732125 494.559544)">resume commanded motion</text>
   </g>
   <g id="text_18">
    <text style="fill: #526575; font: 9px 'DejaVu Sans'; text-anchor: start" x="32.4" y="558.323437" transform="rotate(-0 32.4 558.323437)">Mode and obstacle paths interact through shared state; boxes are not a blocking execution order.</text>
   </g>
  </g>
 </g>
 <defs>
  <clipPath id="p1ef4ec80b6">
   <rect x="0" y="0" width="864" height="583.2"/>
  </clipPath>
 </defs>
</svg>
